<svg width="149" height="149" viewBox="0 0 149 149" fill="none" xmlns="http://www.w3.org/2000/svg">
<g clip-path="url(#clip0_264_374)">
<path d="M9.00124 98.165L5.89353 92.5243H5.02081V98.165H1.38096V83.2225H7.48996C8.66777 83.2225 9.66819 83.4282 10.4912 83.8398C11.3285 84.2513 11.9529 84.8189 12.3644 85.5426C12.7759 86.2521 12.9817 87.0468 12.9817 87.9266C12.9817 88.9199 12.6979 89.8068 12.1302 90.5873C11.5768 91.3678 10.7538 91.9212 9.6611 92.2476L13.1094 98.165H9.00124ZM5.02081 89.9488H7.2771C7.94405 89.9488 8.44072 89.7856 8.7671 89.4592C9.10767 89.1328 9.27796 88.6716 9.27796 88.0756C9.27796 87.508 9.10767 87.061 8.7671 86.7346C8.44072 86.4082 7.94405 86.245 7.2771 86.245H5.02081V89.9488ZM26.4628 92.0348C26.4628 92.3753 26.4416 92.7301 26.399 93.099H18.1614C18.2182 93.8369 18.4523 94.4046 18.8638 94.8019C19.2896 95.185 19.8075 95.3766 20.4177 95.3766C21.3259 95.3766 21.9574 94.9935 22.3121 94.2272H26.1861C25.9875 95.0077 25.6256 95.7101 25.1006 96.3345C24.5897 96.9588 23.944 97.4484 23.1636 97.8032C22.3831 98.1579 21.5104 98.3353 20.5454 98.3353C19.3818 98.3353 18.3459 98.087 17.4377 97.5903C16.5295 97.0937 15.82 96.3841 15.3091 95.4618C14.7983 94.5394 14.5428 93.4609 14.5428 92.2263C14.5428 90.9918 14.7912 89.9133 15.2878 88.9909C15.7987 88.0685 16.5082 87.359 17.4164 86.8623C18.3246 86.3657 19.3676 86.1173 20.5454 86.1173C21.6948 86.1173 22.7166 86.3586 23.6106 86.841C24.5046 87.3235 25.1999 88.0118 25.6966 88.9058C26.2074 89.7998 26.4628 90.8428 26.4628 92.0348ZM22.7378 91.0769C22.7378 90.4525 22.525 89.9558 22.0993 89.5869C21.6736 89.2179 21.1414 89.0335 20.5028 89.0335C19.8927 89.0335 19.3747 89.2108 18.949 89.5656C18.5375 89.9204 18.282 90.4241 18.1827 91.0769H22.7378ZM35.6202 86.1599C37.0109 86.1599 38.1177 86.614 38.9408 87.5222C39.778 88.4162 40.1966 89.6508 40.1966 91.2259V98.165H36.5781V91.7155C36.5781 90.9208 36.3723 90.3035 35.9608 89.8636C35.5492 89.4237 34.9958 89.2038 34.3005 89.2038C33.6051 89.2038 33.0517 89.4237 32.6402 89.8636C32.2287 90.3035 32.0229 90.9208 32.0229 91.7155V98.165H28.383V86.2876H32.0229V87.8628C32.3919 87.3377 32.8885 86.9262 33.5129 86.6282C34.1373 86.316 34.8397 86.1599 35.6202 86.1599ZM49.3458 95.0786V98.165H47.494C46.1743 98.165 45.1454 97.8458 44.4075 97.2072C43.6696 96.5544 43.3007 95.4972 43.3007 94.0356V89.3102H41.8533V86.2876H43.3007V83.3928H46.9405V86.2876H49.3245V89.3102H46.9405V94.0782C46.9405 94.4329 47.0257 94.6884 47.196 94.8445C47.3663 95.0006 47.6501 95.0786 48.0474 95.0786H49.3458ZM50.6496 92.205C50.6496 90.9847 50.8766 89.9133 51.3307 88.9909C51.799 88.0685 52.4305 87.359 53.2251 86.8623C54.0198 86.3657 54.9067 86.1173 55.8859 86.1173C56.7231 86.1173 57.4539 86.2876 58.0783 86.6282C58.7169 86.9688 59.2064 87.4158 59.547 87.9692V86.2876H63.1869V98.165H59.547V96.4835C59.1922 97.0369 58.6956 97.4839 58.057 97.8245C57.4326 98.165 56.7018 98.3353 55.8646 98.3353C54.8996 98.3353 54.0198 98.087 53.2251 97.5903C52.4305 97.0795 51.799 96.3628 51.3307 95.4405C50.8766 94.5039 50.6496 93.4254 50.6496 92.205ZM59.547 92.2263C59.547 91.3181 59.2916 90.6015 58.7807 90.0765C58.284 89.5514 57.6739 89.2889 56.9501 89.2889C56.2264 89.2889 55.6091 89.5514 55.0983 90.0765C54.6016 90.5873 54.3533 91.2968 54.3533 92.205C54.3533 93.1132 54.6016 93.8369 55.0983 94.3762C55.6091 94.9012 56.2264 95.1638 56.9501 95.1638C57.6739 95.1638 58.284 94.9012 58.7807 94.3762C59.2916 93.8511 59.547 93.1345 59.547 92.2263ZM69.46 82.4136V98.165H65.8201V82.4136H69.46ZM85.6549 90.5022C86.5205 90.6867 87.2159 91.1195 87.7409 91.8006C88.266 92.4676 88.5285 93.2338 88.5285 94.0995C88.5285 95.3482 88.0886 96.3416 87.2088 97.0795C86.3432 97.8032 85.1299 98.165 83.5689 98.165H76.6085V83.2225H83.3348C84.8532 83.2225 86.0381 83.5701 86.8895 84.2655C87.7551 84.9608 88.1879 85.9045 88.1879 87.0965C88.1879 87.9763 87.9538 88.7071 87.4855 89.2889C87.0314 89.8707 86.4212 90.2751 85.6549 90.5022ZM80.2484 89.2676H82.6324C83.2284 89.2676 83.6824 89.1399 83.9946 88.8845C84.321 88.6148 84.4842 88.2246 84.4842 87.7138C84.4842 87.2029 84.321 86.8127 83.9946 86.543C83.6824 86.2734 83.2284 86.1386 82.6324 86.1386H80.2484V89.2676ZM82.9304 95.2276C83.5405 95.2276 84.0088 95.0928 84.3352 94.8232C84.6758 94.5394 84.8461 94.1349 84.8461 93.6099C84.8461 93.0848 84.6687 92.6733 84.3139 92.3753C83.9734 92.0773 83.498 91.9283 82.8878 91.9283H80.2484V95.2276H82.9304ZM89.9159 92.205C89.9159 90.9847 90.1429 89.9133 90.597 88.9909C91.0653 88.0685 91.6968 87.359 92.4915 86.8623C93.2861 86.3657 94.173 86.1173 95.1522 86.1173C95.9894 86.1173 96.7202 86.2876 97.3446 86.6282C97.9832 86.9688 98.4728 87.4158 98.8133 87.9692V86.2876H102.453V98.165H98.8133V96.4835C98.4586 97.0369 97.9619 97.4839 97.3233 97.8245C96.6989 98.165 95.9681 98.3353 95.1309 98.3353C94.1659 98.3353 93.2861 98.087 92.4915 97.5903C91.6968 97.0795 91.0653 96.3628 90.597 95.4405C90.1429 94.5039 89.9159 93.4254 89.9159 92.205ZM98.8133 92.2263C98.8133 91.3181 98.5579 90.6015 98.047 90.0765C97.5504 89.5514 96.9402 89.2889 96.2165 89.2889C95.4928 89.2889 94.8755 89.5514 94.3646 90.0765C93.8679 90.5873 93.6196 91.2968 93.6196 92.205C93.6196 93.1132 93.8679 93.8369 94.3646 94.3762C94.8755 94.9012 95.4928 95.1638 96.2165 95.1638C96.9402 95.1638 97.5504 94.9012 98.047 94.3762C98.5579 93.8511 98.8133 93.1345 98.8133 92.2263ZM112.387 86.1599C113.75 86.1599 114.842 86.614 115.665 87.5222C116.489 88.4162 116.9 89.6508 116.9 91.2259V98.165H113.281V91.7155C113.281 90.9208 113.076 90.3035 112.664 89.8636C112.253 89.4237 111.699 89.2038 111.004 89.2038C110.309 89.2038 109.755 89.4237 109.344 89.8636C108.932 90.3035 108.726 90.9208 108.726 91.7155V98.165H105.086V82.4136H108.726V87.884C109.095 87.359 109.599 86.9404 110.238 86.6282C110.876 86.316 111.593 86.1599 112.387 86.1599ZM118.706 92.205C118.706 90.9847 118.933 89.9133 119.387 88.9909C119.855 88.0685 120.487 87.359 121.281 86.8623C122.076 86.3657 122.963 86.1173 123.942 86.1173C124.779 86.1173 125.51 86.2876 126.134 86.6282C126.773 86.9688 127.263 87.4158 127.603 87.9692V86.2876H131.243V98.165H127.603V96.4835C127.248 97.0369 126.752 97.4839 126.113 97.8245C125.489 98.165 124.758 98.3353 123.921 98.3353C122.956 98.3353 122.076 98.087 121.281 97.5903C120.487 97.0795 119.855 96.3628 119.387 95.4405C118.933 94.5039 118.706 93.4254 118.706 92.205ZM127.603 92.2263C127.603 91.3181 127.348 90.6015 126.837 90.0765C126.34 89.5514 125.73 89.2889 125.006 89.2889C124.283 89.2889 123.665 89.5514 123.154 90.0765C122.658 90.5873 122.409 91.2968 122.409 92.205C122.409 93.1132 122.658 93.8369 123.154 94.3762C123.665 94.9012 124.283 95.1638 125.006 95.1638C125.73 95.1638 126.34 94.9012 126.837 94.3762C127.348 93.8511 127.603 93.1345 127.603 92.2263ZM137.516 88.2672C137.942 87.6144 138.474 87.1036 139.113 86.7346C139.751 86.3515 140.461 86.1599 141.241 86.1599V90.0126H140.241C139.332 90.0126 138.651 90.2113 138.197 90.6086C137.743 90.9918 137.516 91.6729 137.516 92.652V98.165H133.876V86.2876H137.516V88.2672ZM144.811 85.053C144.173 85.053 143.648 84.8686 143.236 84.4996C142.839 84.1165 142.64 83.6482 142.64 83.0948C142.64 82.5271 142.839 82.0588 143.236 81.6899C143.648 81.3068 144.173 81.1152 144.811 81.1152C145.436 81.1152 145.947 81.3068 146.344 81.6899C146.756 82.0588 146.961 82.5271 146.961 83.0948C146.961 83.6482 146.756 84.1165 146.344 84.4996C145.947 84.8686 145.436 85.053 144.811 85.053ZM146.621 86.2876V98.165H142.981V86.2876H146.621ZM54.8975 119.898H50.2519L49.0546 122.165H47.1549L53.0936 111.054H55.2009L57.2124 122.165H55.2967L54.8975 119.898ZM54.6581 118.477L53.7481 113.257L51.0023 118.477H54.6581ZM59.1164 117.727C59.276 116.844 59.5953 116.061 60.0742 115.38C60.5638 114.699 61.1598 114.172 61.8622 113.8C62.5646 113.417 63.3043 113.225 64.0812 113.225C64.656 113.225 65.1987 113.353 65.7096 113.608C66.2205 113.853 66.6089 114.183 66.875 114.598L67.6253 110.351H69.4612L67.3699 122.165H65.534L65.7735 120.84C65.3903 121.276 64.9114 121.633 64.3367 121.91C63.7726 122.176 63.15 122.309 62.4689 122.309C61.7984 122.309 61.2024 122.16 60.6809 121.862C60.1594 121.564 59.7496 121.143 59.4516 120.601C59.1642 120.047 59.0206 119.414 59.0206 118.701C59.0206 118.382 59.0525 118.057 59.1164 117.727ZM66.3162 117.759C66.3588 117.557 66.3801 117.339 66.3801 117.104C66.3801 116.391 66.1672 115.833 65.7415 115.428C65.3265 115.013 64.805 114.806 64.177 114.806C63.7087 114.806 63.2511 114.923 62.8041 115.157C62.3571 115.38 61.9686 115.715 61.6387 116.162C61.3088 116.599 61.0906 117.12 60.9842 117.727C60.9416 117.929 60.9203 118.147 60.9203 118.382C60.9203 119.105 61.1279 119.68 61.5429 120.106C61.9686 120.521 62.4955 120.728 63.1234 120.728C63.5917 120.728 64.0493 120.611 64.4963 120.377C64.9433 120.143 65.3318 119.802 65.6617 119.355C65.9916 118.898 66.2098 118.366 66.3162 117.759ZM81.9889 113.225C82.9149 113.225 83.6545 113.475 84.208 113.975C84.7614 114.476 85.0381 115.183 85.0381 116.099C85.0381 116.343 85.0115 116.636 84.9583 116.977L84.0324 122.165H82.2284L83.1064 117.248C83.149 116.95 83.1703 116.737 83.1703 116.609C83.1703 116.024 83.0053 115.577 82.6754 115.268C82.3561 114.96 81.9091 114.806 81.3344 114.806C80.6426 114.806 80.0573 115.018 79.5783 115.444C79.11 115.859 78.812 116.46 78.6843 117.248L77.8063 122.165H76.0023L76.8804 117.248C76.9229 116.95 76.9442 116.737 76.9442 116.609C76.9442 116.024 76.7793 115.577 76.4493 115.268C76.13 114.96 75.683 114.806 75.1083 114.806C74.4165 114.806 73.8312 115.018 73.3523 115.444C72.884 115.859 72.586 116.46 72.4583 117.248V117.2L71.5802 122.165H69.7603L71.3088 113.369H73.1288L72.9531 114.39C73.3044 114.029 73.7248 113.747 74.2143 113.544C74.7145 113.331 75.2307 113.225 75.7629 113.225C76.4653 113.225 77.0666 113.374 77.5668 113.672C78.0777 113.97 78.4342 114.401 78.6364 114.965C78.9876 114.433 79.4719 114.013 80.0892 113.704C80.7065 113.385 81.3397 113.225 81.9889 113.225ZM89.0302 112.203C88.7428 112.203 88.5087 112.113 88.3278 111.932C88.1468 111.751 88.0564 111.522 88.0564 111.245C88.0564 110.873 88.1947 110.554 88.4714 110.288C88.7588 110.011 89.0834 109.873 89.4453 109.873C89.7326 109.873 89.9614 109.963 90.1317 110.144C90.3127 110.325 90.4031 110.554 90.4031 110.83C90.4031 111.203 90.2648 111.528 89.988 111.804C89.7113 112.07 89.392 112.203 89.0302 112.203ZM89.7167 113.369L88.1681 122.165H86.3482L87.8967 113.369H89.7167ZM96.5761 113.225C97.502 113.225 98.2363 113.475 98.7791 113.975C99.3326 114.465 99.6093 115.173 99.6093 116.099C99.6093 116.333 99.5827 116.625 99.5294 116.977L98.6035 122.165H96.7996L97.6776 117.248C97.7202 116.95 97.7414 116.737 97.7414 116.609C97.7414 116.024 97.5765 115.577 97.2466 115.268C96.9273 114.96 96.4803 114.806 95.9056 114.806C95.2138 114.806 94.6284 115.018 94.1495 115.444C93.6812 115.859 93.3832 116.46 93.2555 117.248V117.2L92.3774 122.165H90.5575L92.1061 113.369H93.926L93.7504 114.39C94.1122 114.029 94.5379 113.747 95.0275 113.544C95.5277 113.331 96.0439 113.225 96.5761 113.225Z" fill="#E4E4E4"/>
<path d="M93.7813 22.2293C93.2048 20.5123 91.5906 19.29 89.6882 19.29H57.9814C56.079 19.29 54.4936 20.5123 53.8883 22.2293L47.8928 39.6611V62.9424C47.8928 64.543 49.1899 65.8525 50.7753 65.8525H53.6577C55.243 65.8525 56.5401 64.543 56.5401 62.9424V60.0322H91.1294V62.9424C91.1294 64.543 92.4265 65.8525 94.0119 65.8525H96.8943C98.4797 65.8525 99.7768 64.543 99.7768 62.9424V39.6611L93.7813 22.2293ZM57.9814 51.3018C55.5889 51.3018 53.6577 49.352 53.6577 46.9365C53.6577 44.5211 55.5889 42.5713 57.9814 42.5713C60.3738 42.5713 62.305 44.5211 62.305 46.9365C62.305 49.352 60.3738 51.3018 57.9814 51.3018ZM89.6882 51.3018C87.2958 51.3018 85.3645 49.352 85.3645 46.9365C85.3645 44.5211 87.2958 42.5713 89.6882 42.5713C92.0806 42.5713 94.0119 44.5211 94.0119 46.9365C94.0119 49.352 92.0806 51.3018 89.6882 51.3018ZM53.6577 36.751L57.9814 23.6553H89.6882L94.0119 36.751H53.6577Z" fill="#E4E4E4"/>
</g>
<defs>
<clipPath id="clip0_264_374">
<rect width="149" height="149" fill="white"/>
</clipPath>
</defs>
</svg>
