<svg width="18" height="18" viewBox="0 0 18 18" fill="none" xmlns="http://www.w3.org/2000/svg">
<path d="M15.4481 9.88125C15.4856 9.6 15.5044 9.30937 15.5044 9C15.5044 8.7 15.4856 8.4 15.4387 8.11875L17.3419 6.6375C17.5106 6.50625 17.5575 6.25312 17.4544 6.06562L15.6544 2.95312C15.5419 2.74687 15.3075 2.68125 15.1013 2.74687L12.8606 3.64687C12.3919 3.29062 11.895 2.99062 11.3419 2.76562L11.0044 0.384375C10.9669 0.159375 10.7794 0 10.5544 0H6.95437C6.72937 0 6.55125 0.159375 6.51375 0.384375L6.17625 2.76562C5.62313 2.99062 5.11688 3.3 4.6575 3.64687L2.41687 2.74687C2.21062 2.67187 1.97625 2.74687 1.86375 2.95312L0.0731253 6.06562C-0.0393747 6.2625 -0.00187478 6.50625 0.185625 6.6375L2.08875 8.11875C2.04188 8.4 2.00438 8.70937 2.00438 9C2.00438 9.29062 2.02312 9.6 2.07 9.88125L0.166875 11.3625C-0.00187477 11.4937 -0.0487497 11.7469 0.0543753 11.9344L1.85438 15.0469C1.96688 15.2531 2.20125 15.3187 2.4075 15.2531L4.64812 14.3531C5.11687 14.7094 5.61375 15.0094 6.16687 15.2344L6.50438 17.6156C6.55125 17.8406 6.72937 18 6.95437 18H10.5544C10.7794 18 10.9669 17.8406 10.995 17.6156L11.3325 15.2344C11.8856 15.0094 12.3919 14.7094 12.8513 14.3531L15.0919 15.2531C15.2981 15.3281 15.5325 15.2531 15.645 15.0469L17.445 11.9344C17.5575 11.7281 17.5106 11.4937 17.3325 11.3625L15.4481 9.88125ZM8.75437 12.375C6.89812 12.375 5.37937 10.8562 5.37937 9C5.37937 7.14375 6.89812 5.625 8.75437 5.625C10.6106 5.625 12.1294 7.14375 12.1294 9C12.1294 10.8562 10.6106 12.375 8.75437 12.375Z" fill="#222222"/>
</svg>
