<svg width="24" height="24" viewBox="0 0 24 24" fill="none" xmlns="http://www.w3.org/2000/svg">
<path d="M12.007 2.16136C15.2152 2.16136 15.5951 2.17542 16.8568 2.23169C18.0293 2.28326 18.6625 2.48017 19.0846 2.64427C19.6428 2.85993 20.0461 3.12248 20.4636 3.53975C20.8857 3.96171 21.1436 4.36023 21.3594 4.91815C21.5236 5.34011 21.7205 5.97773 21.7721 7.14515C21.8284 8.41102 21.8425 8.79078 21.8425 11.993C21.8425 15.1998 21.8284 15.5796 21.7721 16.8408C21.7205 18.0129 21.5236 18.6458 21.3594 19.0678C21.1436 19.6257 20.881 20.0289 20.4636 20.4462C20.0414 20.8681 19.6428 21.126 19.0846 21.3417C18.6625 21.5058 18.0246 21.7027 16.8568 21.7542C15.5904 21.8105 15.2105 21.8246 12.007 21.8246C8.79891 21.8246 8.419 21.8105 7.15732 21.7542C5.98476 21.7027 5.35157 21.5058 4.92945 21.3417C4.37131 21.126 3.96795 20.8635 3.55052 20.4462C3.1284 20.0242 2.87043 19.6257 2.65468 19.0678C2.49052 18.6458 2.29353 18.0082 2.24194 16.8408C2.18566 15.5749 2.17159 15.1952 2.17159 11.993C2.17159 8.78609 2.18566 8.40633 2.24194 7.14515C2.29353 5.97304 2.49052 5.34011 2.65468 4.91815C2.87043 4.36023 3.13309 3.95702 3.55052 3.53975C3.97264 3.1178 4.37131 2.85993 4.92945 2.64427C5.35157 2.48017 5.98945 2.28326 7.15732 2.23169C8.419 2.17542 8.79891 2.16136 12.007 2.16136ZM12.007 0C8.74731 0 8.33926 0.0140652 7.05882 0.0703262C5.78308 0.126587 4.906 0.332877 4.14618 0.628248C3.35353 0.937683 2.68282 1.34558 2.01681 2.01602C1.3461 2.68177 0.93805 3.35222 0.628493 4.13987C0.333008 4.90408 0.126637 5.77613 0.0703537 7.05138C0.0140707 8.336 0 8.7439 0 12.0023C0 15.2608 0.0140707 15.6687 0.0703537 16.9486C0.126637 18.2239 0.333008 19.1006 0.628493 19.8601C0.93805 20.6525 1.3461 21.3229 2.01681 21.9887C2.68282 22.6544 3.35353 23.067 4.14149 23.3718C4.906 23.6671 5.77839 23.8734 7.05413 23.9297C8.33457 23.9859 8.74262 24 12.0023 24C15.2621 24 15.6701 23.9859 16.9506 23.9297C18.2263 23.8734 19.1034 23.6671 19.8632 23.3718C20.6512 23.067 21.3219 22.6544 21.9879 21.9887C22.6539 21.3229 23.0666 20.6525 23.3715 19.8648C23.667 19.1006 23.8734 18.2286 23.9296 16.9533C23.9859 15.6734 24 15.2655 24 12.007C24 8.74858 23.9859 8.34069 23.9296 7.06075C23.8734 5.78551 23.667 4.90877 23.3715 4.14925C23.076 3.35222 22.668 2.68177 21.9973 2.01602C21.3313 1.35026 20.6605 0.937683 19.8726 0.632936C19.1081 0.337566 18.2357 0.131276 16.9599 0.0750147C15.6748 0.0140653 15.2668 0 12.007 0Z" fill="#E4E4E4"/>
<path d="M12.007 5.83691C8.60191 5.83691 5.83936 8.59839 5.83936 12.0022C5.83936 15.406 8.60191 18.1674 12.007 18.1674C15.4122 18.1674 18.1747 15.406 18.1747 12.0022C18.1747 8.59839 15.4122 5.83691 12.007 5.83691ZM12.007 16.0014C9.79792 16.0014 8.00625 14.2104 8.00625 12.0022C8.00625 9.79394 9.79792 8.00296 12.007 8.00296C14.2161 8.00296 16.0078 9.79394 16.0078 12.0022C16.0078 14.2104 14.2161 16.0014 12.007 16.0014Z" fill="#E4E4E4"/>
<path d="M19.8586 5.59315C19.8586 6.39019 19.2113 7.0325 18.4187 7.0325C17.6213 7.0325 16.9788 6.3855 16.9788 5.59315C16.9788 4.79612 17.626 4.15381 18.4187 4.15381C19.2113 4.15381 19.8586 4.80081 19.8586 5.59315Z" fill="#E4E4E4"/>
</svg>
